{
	"asset":{
		"generator":"Khronos glTF Blender I/O v3.6.28",
		"version":"2.0"
	},
	"scene":0,
	"scenes":[
		{
			"name":"Scene",
			"nodes":[
				0
			]
		}
	],
	"nodes":[
		{
			"mesh":0,
			"name":"Cube",
			"scale":[
				0.24311447143554688,
				1.9082000255584717,
				1
			],
			"translation":[
				0,
				1.9082000255584717,
				0
			]
		}
	],
	"meshes":[
		{
			"name":"Cube.003",
			"primitives":[
				{
					"attributes":{
						"POSITION":0,
						"NORMAL":1,
						"TEXCOORD_0":2
					},
					"indices":3
				}
			]
		}
	],
	"accessors":[
		{
			"bufferView":0,
			"componentType":5126,
			"count":263,
			"max":[
				1,
				1.0000001192092896,
				1
			],
			"min":[
				-1,
				-1,
				-1
			],
			"type":"VEC3"
		},
		{
			"bufferView":1,
			"componentType":5126,
			"count":263,
			"type":"VEC3"
		},
		{
			"bufferView":2,
			"componentType":5126,
			"count":263,
			"type":"VEC2"
		},
		{
			"bufferView":3,
			"componentType":5123,
			"count":912,
			"type":"SCALAR"
		}
	],
	"bufferViews":[
		{
			"buffer":0,
			"byteLength":3156,
			"byteOffset":0,
			"target":34962
		},
		{
			"buffer":0,
			"byteLength":3156,
			"byteOffset":3156,
			"target":34962
		},
		{
			"buffer":0,
			"byteLength":2104,
			"byteOffset":6312,
			"target":34962
		},
		{
			"buffer":0,
			"byteLength":1824,
			"byteOffset":8416,
			"target":34963
		}
	],
	"buffers":[
		{
			"byteLength":10240,
			"uri":"data:application/octet-stream;base64,"
		}
	]
}
